<svg width="18" height="18" viewBox="0 0 18 18" fill="none" xmlns="http://www.w3.org/2000/svg">
<g clip-path="url(#clip0_895_1914)">
<path d="M9 0C4.02991 0 0 4.02991 0 9C0 13.9701 4.02991 18 9 18C13.9701 18 18 13.9701 18 9C18 4.02991 13.9701 0 9 0ZM9 16.4732C4.87366 16.4732 1.52679 13.1263 1.52679 9C1.52679 4.87366 4.87366 1.52679 9 1.52679C13.1263 1.52679 16.4732 4.87366 16.4732 9C16.4732 13.1263 13.1263 16.4732 9 16.4732Z" fill="black"/>
<path d="M9.00001 1.52686C4.87367 1.52686 1.52679 4.87373 1.52679 9.00007C1.52679 13.1264 4.87367 16.4733 9.00001 16.4733C13.1263 16.4733 16.4732 13.1264 16.4732 9.00007C16.4732 4.87373 13.1263 1.52686 9.00001 1.52686ZM12.4513 12.1159C12.4755 12.1461 12.4895 12.1822 12.4895 12.2204C12.4895 12.3108 12.4172 12.3811 12.3288 12.3811L11.0029 12.3751L9.00805 9.9965L7.01318 12.3771L5.68528 12.3831C5.59688 12.3831 5.52456 12.3108 5.52456 12.2224C5.52456 12.1842 5.53862 12.1481 5.56273 12.1179L8.17635 9.0061L5.56273 5.89226C5.53846 5.86281 5.52499 5.82595 5.52456 5.78779C5.52456 5.69739 5.59688 5.62708 5.68528 5.62708L7.01318 5.63311L9.00805 8.01168L11.0049 5.6311L12.3308 5.62507C12.4192 5.62507 12.4915 5.69739 12.4915 5.78578C12.4915 5.82395 12.4795 5.86212 12.4554 5.89025L9.84175 9.00409L12.4513 12.1159Z" fill="#F8F8F8"/>
<path d="M12.4915 5.78571C12.4915 5.69732 12.4192 5.625 12.3308 5.625L11.0049 5.63103L9.00805 8.01161L7.01318 5.63304L5.68528 5.62701C5.59689 5.62701 5.52457 5.69732 5.52457 5.78772C5.52457 5.82589 5.53863 5.86205 5.56274 5.89219L8.17635 9.00603L5.56274 12.1179C5.53846 12.1473 5.52499 12.1842 5.52457 12.2223C5.52457 12.3107 5.59689 12.383 5.68528 12.383L7.01318 12.377L9.00805 9.99643L11.0029 12.375L12.3288 12.381C12.4172 12.381 12.4895 12.3107 12.4895 12.2203C12.4895 12.1821 12.4755 12.146 12.4514 12.1158L9.84175 9.00402L12.4554 5.89018C12.4795 5.86205 12.4915 5.82388 12.4915 5.78571Z" fill="black"/>
</g>
<defs>
<clipPath id="clip0_895_1914">
<rect width="18" height="18" fill="white"/>
</clipPath>
</defs>
</svg>
