<svg width="20" height="19" viewBox="0 0 20 19" fill="none" xmlns="http://www.w3.org/2000/svg">
<path d="M1 4.15625H8M8 4.15625C8 5.8131 9.34315 7.15625 11 7.15625H12C13.6569 7.15625 15 5.8131 15 4.15625C15 2.4994 13.6569 1.15625 12 1.15625H11C9.34315 1.15625 8 2.4994 8 4.15625ZM14 14.1562H19M18 4.15625H19M1 14.1562H4M4 14.1562C4 15.8131 5.34315 17.1562 7 17.1562H8C9.65685 17.1562 11 15.8131 11 14.1562C11 12.4994 9.65685 11.1562 8 11.1562H7C5.34315 11.1562 4 12.4994 4 14.1562Z" stroke="#9E9E9E" stroke-width="2" stroke-linecap="round" stroke-linejoin="round"/>
</svg>
