<svg width="30" height="30" viewBox="0 0 30 30" fill="none" xmlns="http://www.w3.org/2000/svg">
<path d="M29.2 27.2321L19.925 17.9571C21.3643 16.0964 22.1429 13.8214 22.1429 11.4285C22.1429 8.56423 21.025 5.87852 19.0036 3.85352C16.9822 1.82852 14.2893 0.714233 11.4286 0.714233C8.56787 0.714233 5.87501 1.83209 3.85358 3.85352C1.82858 5.87495 0.714294 8.56423 0.714294 11.4285C0.714294 14.2892 1.83215 16.9821 3.85358 19.0035C5.87501 21.0285 8.56429 22.1428 11.4286 22.1428C13.8214 22.1428 16.0929 21.3642 17.9536 19.9285L27.2286 29.1999C27.2558 29.2272 27.2881 29.2487 27.3236 29.2635C27.3592 29.2782 27.3973 29.2858 27.4357 29.2858C27.4742 29.2858 27.5123 29.2782 27.5478 29.2635C27.5834 29.2487 27.6157 29.2272 27.6429 29.1999L29.2 27.6464C29.2272 27.6192 29.2488 27.5869 29.2635 27.5513C29.2783 27.5158 29.2858 27.4777 29.2858 27.4392C29.2858 27.4008 29.2783 27.3627 29.2635 27.3271C29.2488 27.2916 29.2272 27.2593 29.2 27.2321ZM17.0857 17.0857C15.5714 18.5964 13.5643 19.4285 11.4286 19.4285C9.29287 19.4285 7.28572 18.5964 5.77144 17.0857C4.26072 15.5714 3.42858 13.5642 3.42858 11.4285C3.42858 9.29281 4.26072 7.28209 5.77144 5.77138C7.28572 4.26066 9.29287 3.42852 11.4286 3.42852C13.5643 3.42852 15.575 4.25709 17.0857 5.77138C18.5964 7.28566 19.4286 9.29281 19.4286 11.4285C19.4286 13.5642 18.5964 15.5749 17.0857 17.0857Z" fill="#06C895"/>
</svg>
