<svg width="22" height="22" viewBox="0 0 22 22" fill="none" xmlns="http://www.w3.org/2000/svg">
<path d="M21.6501 20.1742L14.6938 13.2179C15.7733 11.8224 16.3572 10.1161 16.3572 8.32148C16.3572 6.17327 15.5188 4.15898 14.0027 2.64023C12.4867 1.12148 10.467 0.285767 8.32148 0.285767C6.17595 0.285767 4.1563 1.12416 2.64023 2.64023C1.12148 4.1563 0.285767 6.17327 0.285767 8.32148C0.285767 10.467 1.12416 12.4867 2.64023 14.0027C4.1563 15.5215 6.17327 16.3572 8.32148 16.3572C10.1161 16.3572 11.8197 15.7733 13.2152 14.6965L20.1715 21.6501C20.1919 21.6705 20.2161 21.6867 20.2428 21.6977C20.2694 21.7087 20.298 21.7144 20.3268 21.7144C20.3557 21.7144 20.3843 21.7087 20.4109 21.6977C20.4376 21.6867 20.4618 21.6705 20.4822 21.6501L21.6501 20.4849C21.6705 20.4645 21.6867 20.4403 21.6977 20.4136C21.7087 20.3869 21.7144 20.3584 21.7144 20.3295C21.7144 20.3007 21.7087 20.2721 21.6977 20.2454C21.6867 20.2188 21.6705 20.1946 21.6501 20.1742ZM12.5643 12.5643C11.4286 13.6974 9.92327 14.3215 8.32148 14.3215C6.7197 14.3215 5.21434 13.6974 4.07862 12.5643C2.94559 11.4286 2.32148 9.92327 2.32148 8.32148C2.32148 6.7197 2.94559 5.21166 4.07862 4.07862C5.21434 2.94559 6.7197 2.32148 8.32148 2.32148C9.92327 2.32148 11.4313 2.94291 12.5643 4.07862C13.6974 5.21434 14.3215 6.7197 14.3215 8.32148C14.3215 9.92327 13.6974 11.4313 12.5643 12.5643Z" fill="#666666"/>
</svg>
