<svg width="23" height="21" viewBox="0 0 23 21" fill="none" xmlns="http://www.w3.org/2000/svg">
<path d="M22.1922 0.528815C21.8956 0.282079 21.5377 0.120372 21.1565 0.0609032C20.7753 0.00143391 20.3852 0.0464276 20.0275 0.191096L1.3599 7.72792C0.960681 7.89217 0.620854 8.17395 0.385525 8.53585C0.150195 8.89776 0.0304908 9.32267 0.0423007 9.7542C0.0541107 10.1857 0.196876 10.6035 0.451648 10.9519C0.706419 11.3004 1.06115 11.5632 1.46875 11.7054L5.24479 13.0186L7.34948 19.9787C7.37808 20.0717 7.41959 20.1602 7.47279 20.2416C7.48087 20.2541 7.49225 20.2634 7.50084 20.2755C7.5623 20.3613 7.63658 20.4371 7.72108 20.5003C7.74511 20.5186 7.76812 20.5358 7.79381 20.552C7.8927 20.6177 8.00221 20.6656 8.11748 20.6938L8.12982 20.6949L8.1368 20.6979C8.20611 20.712 8.27665 20.7191 8.34738 20.7192C8.35418 20.7192 8.36022 20.716 8.36696 20.7158C8.47369 20.714 8.57949 20.6956 8.6806 20.6614C8.70412 20.6533 8.72427 20.6399 8.7471 20.6303C8.82249 20.599 8.89392 20.559 8.9599 20.5109C9.01273 20.4664 9.06559 20.4219 9.11846 20.3774L11.9332 17.2697L16.1314 20.5219C16.501 20.8096 16.9559 20.966 17.4243 20.9664C17.9151 20.9658 18.3908 20.7964 18.7716 20.4868C19.1524 20.1771 19.4152 19.7459 19.5158 19.2656L22.9145 2.58164C22.9915 2.20614 22.965 1.81676 22.8377 1.45517C22.7105 1.09357 22.4874 0.773372 22.1922 0.528815ZM8.76042 13.3503C8.61598 13.4941 8.51725 13.6774 8.47661 13.8772L8.1542 15.4439L7.33747 12.7428L11.5721 10.5376L8.76042 13.3503ZM17.4081 18.8749L12.4469 15.0318C12.2394 14.8714 11.979 14.7951 11.7177 14.8181C11.4564 14.8411 11.2134 14.9617 11.037 15.1559L10.1356 16.1509L10.4541 14.6025L17.8323 7.22435C18.0084 7.04847 18.1157 6.81534 18.1347 6.56718C18.1538 6.31902 18.0833 6.07225 17.9361 5.87155C17.7889 5.67086 17.5747 5.52952 17.3323 5.47313C17.0899 5.41675 16.8353 5.44905 16.6146 5.56419L6.02578 11.0773L2.14624 9.65765L20.8738 2.16555L17.4081 18.8749Z" fill="#06C895"/>
</svg>
