<svg width="30" height="31" viewBox="0 0 30 31" fill="none" xmlns="http://www.w3.org/2000/svg">
<path d="M27.8309 3.53466C27.475 3.23858 27.0454 3.04453 26.588 2.97317C26.1306 2.90181 25.6624 2.9558 25.2332 3.1294L2.83207 12.1736C2.35301 12.3707 1.94522 12.7088 1.66282 13.1431C1.38043 13.5774 1.23678 14.0873 1.25096 14.6051C1.26513 15.123 1.43645 15.6242 1.74217 16.0424C2.0479 16.4606 2.47357 16.7759 2.9627 16.9465L7.49395 18.5225L10.0196 26.8745C10.0539 26.9861 10.1037 27.0923 10.1675 27.19C10.1772 27.205 10.1909 27.2162 10.2012 27.2307C10.275 27.3336 10.3641 27.4246 10.4655 27.5004C10.4943 27.5224 10.5219 27.543 10.5528 27.5625C10.6714 27.6413 10.8028 27.6988 10.9412 27.7327L10.956 27.7339L10.9644 27.7375C11.0475 27.7544 11.1322 27.763 11.217 27.7631C11.2252 27.7631 11.2325 27.7592 11.2405 27.7591C11.3686 27.7569 11.4956 27.7348 11.6169 27.6937C11.6451 27.6841 11.6693 27.668 11.6967 27.6564C11.7872 27.6189 11.8729 27.5709 11.9521 27.5132C12.0155 27.4598 12.0789 27.4064 12.1423 27.353L15.52 23.6237L20.5579 27.5263C21.0014 27.8716 21.5473 28.0593 22.1094 28.0598C22.6984 28.059 23.2692 27.8558 23.7261 27.4842C24.1831 27.1126 24.4984 26.5952 24.6192 26.0187L28.6975 5.99805C28.79 5.54745 28.7581 5.0802 28.6055 4.64629C28.4528 4.21238 28.1851 3.82813 27.8309 3.53466ZM11.7127 18.9204C11.5394 19.093 11.4209 19.313 11.3721 19.5527L10.9852 21.4327L10.0052 18.1914L15.0867 15.5452L11.7127 18.9204ZM22.0899 25.55L16.1365 20.9382C15.8874 20.7457 15.575 20.6542 15.2614 20.6818C14.9479 20.7094 14.6562 20.8541 14.4446 21.0871L13.3629 22.2811L13.7452 20.423L22.5989 11.5693C22.8102 11.3583 22.939 11.0785 22.9619 10.7807C22.9847 10.4829 22.9002 10.1868 22.7235 9.94595C22.5469 9.70511 22.2899 9.5355 21.9989 9.46784C21.708 9.40019 21.4025 9.43895 21.1377 9.57711L8.43114 16.1929L3.77569 14.4893L26.2488 5.49875L22.0899 25.55Z" fill="#007BFF"/>
</svg>
