<svg width="23" height="23" viewBox="0 0 23 23" fill="none" xmlns="http://www.w3.org/2000/svg">
<path d="M15.3997 13.0931C15.0954 12.7641 14.7537 12.4718 14.3816 12.2221C15.8834 11.061 16.9358 9.4148 17.3595 7.56433C17.3907 7.4306 17.3952 7.29202 17.3727 7.15654C17.3503 7.02106 17.3012 6.89136 17.2284 6.77492C17.1556 6.65847 17.0605 6.55757 16.9485 6.47803C16.8366 6.39848 16.71 6.34185 16.5761 6.31141C16.4422 6.28096 16.3035 6.2773 16.1682 6.30063C16.0329 6.32396 15.9035 6.37382 15.7875 6.44734C15.6715 6.52087 15.5712 6.6166 15.4923 6.72904C15.4135 6.84148 15.3576 6.9684 15.328 7.1025C15.1307 7.96809 14.747 8.78022 14.2036 9.48227C13.6601 10.1843 12.9701 10.7594 12.1816 11.1674V7.3355C12.1752 7.25885 12.1599 7.1832 12.1361 7.11005C12.1292 7.04982 12.1172 6.99029 12.1002 6.9321C12.0558 6.83737 11.9972 6.74994 11.9264 6.67282C11.9078 6.6507 11.8984 6.62152 11.8781 6.60105C11.8017 6.5306 11.7153 6.47195 11.6217 6.42703C11.5951 6.41285 11.5754 6.38888 11.5474 6.37703C11.4676 6.35044 11.385 6.33343 11.3011 6.32635C11.2494 6.31121 11.1965 6.30035 11.143 6.29386L10.4615 6.29175H10.4584C10.2147 6.29059 9.97842 6.3753 9.79098 6.53102C9.60354 6.68675 9.47694 6.90352 9.43342 7.14329C9.38989 7.38306 9.43222 7.6305 9.55297 7.84217C9.67373 8.05383 9.86518 8.2162 10.0937 8.30076V13.3952C8.44303 11.6817 7.35 9.50841 6.95856 7.16154C6.93572 7.02668 6.88653 6.89765 6.81382 6.7818C6.74111 6.66595 6.64629 6.56556 6.53478 6.48635C6.42327 6.40715 6.29725 6.35068 6.16391 6.32018C6.03058 6.28968 5.89254 6.28574 5.75769 6.30858C5.62283 6.33143 5.49379 6.38061 5.37794 6.45332C5.26209 6.52604 5.1617 6.62085 5.0825 6.73237C5.00329 6.84388 4.94683 6.9699 4.91633 7.10323C4.88582 7.23656 4.88188 7.3746 4.90473 7.50946C5.51347 11.1371 7.53638 14.3752 10.5296 16.5132C10.5723 16.5387 10.6168 16.5612 10.6628 16.5803C10.6988 16.6015 10.7362 16.6203 10.7747 16.6367C10.891 16.6832 11.0148 16.7082 11.14 16.7105C11.2932 16.7086 11.4441 16.6724 11.5815 16.6044C11.5918 16.5995 11.6037 16.6018 11.614 16.5966C11.7061 16.5486 11.7904 16.4871 11.8641 16.414C11.8789 16.3995 11.8889 16.3818 11.9029 16.3665C11.9701 16.2927 12.0262 16.2095 12.0694 16.1195C12.0839 16.0896 12.0971 16.0611 12.1088 16.0296C12.1546 15.9147 12.1792 15.7925 12.1816 15.6688L12.1822 13.4542C12.8276 13.6438 13.4091 14.0057 13.8642 14.501L15.5808 16.3727C15.6731 16.4739 15.7845 16.5558 15.9086 16.6139C16.0326 16.6719 16.1669 16.7049 16.3038 16.711C16.4406 16.717 16.5773 16.696 16.706 16.6492C16.8347 16.6024 16.9529 16.5306 17.0538 16.4381C17.1548 16.3455 17.2365 16.2339 17.2942 16.1097C17.352 15.9855 17.3847 15.8512 17.3904 15.7143C17.3962 15.5775 17.3749 15.4408 17.3278 15.3122C17.2806 15.1836 17.2086 15.0656 17.1158 14.9649L15.3997 13.0931ZM14.7009 0.041748H8.30998C1.8962 0.041748 0.041748 1.89416 0.041748 8.29879V14.6902C0.041748 21.104 1.89365 22.9584 8.2993 22.9584H14.6902C21.104 22.9584 22.9584 21.106 22.9584 14.7014V8.30998C22.9584 1.8962 21.1065 0.041748 14.7009 0.041748ZM20.8751 14.7014C20.8751 19.9514 19.9504 20.8751 14.6902 20.8751H8.2993C3.04824 20.8751 2.12508 19.9504 2.12508 14.6902V8.29879C2.12508 3.04875 3.04977 2.12508 8.30998 2.12508H14.7009C19.9519 2.12508 20.8751 3.04977 20.8751 8.30998V14.7014Z" fill="#06C895"/>
</svg>
