<svg width="30" height="31" viewBox="0 0 30 31" fill="none" xmlns="http://www.w3.org/2000/svg">
<path d="M19.6796 17.4116C19.3144 17.0168 18.9044 16.666 18.4578 16.3665C20.26 14.9731 21.5229 12.9977 22.0312 10.7771C22.0688 10.6166 22.0742 10.4503 22.0472 10.2877C22.0202 10.1252 21.9613 9.96954 21.874 9.8298C21.7866 9.69007 21.6725 9.56899 21.5381 9.47353C21.4038 9.37808 21.2519 9.31013 21.0912 9.27359C20.9305 9.23706 20.7642 9.23266 20.6017 9.26066C20.4393 9.28865 20.2841 9.34848 20.1449 9.43671C20.0057 9.52494 19.8853 9.63982 19.7907 9.77475C19.6961 9.90967 19.629 10.062 19.5935 10.2229C19.3567 11.2616 18.8963 12.2362 18.2442 13.0786C17.5921 13.9211 16.7641 14.6112 15.8179 15.1007V10.5025C15.8102 10.4105 15.7918 10.3197 15.7633 10.232C15.755 10.1597 15.7406 10.0882 15.7201 10.0184C15.6668 9.90474 15.5965 9.79983 15.5116 9.70729C15.4893 9.68074 15.478 9.64572 15.4536 9.62116C15.362 9.53663 15.2583 9.46624 15.146 9.41234C15.1141 9.39532 15.0903 9.36656 15.0568 9.35234C14.9611 9.32043 14.8619 9.30002 14.7613 9.29152C14.6992 9.27336 14.6357 9.26032 14.5715 9.25254L13.7537 9.25H13.75C13.4576 9.2486 13.174 9.35026 12.9491 9.53713C12.7241 9.724 12.5722 9.98413 12.52 10.2719C12.4678 10.5596 12.5186 10.8565 12.6635 11.1105C12.8084 11.3645 13.0381 11.5593 13.3124 11.6608V17.7742C11.3315 15.7179 10.0199 13.11 9.55017 10.2937C9.52276 10.1319 9.46374 9.97708 9.37649 9.83806C9.28923 9.69904 9.17545 9.57857 9.04163 9.48352C8.90782 9.38848 8.7566 9.32072 8.5966 9.28412C8.4366 9.24752 8.27095 9.24279 8.10913 9.2702C7.9473 9.29761 7.79245 9.35663 7.65343 9.44389C7.51442 9.53114 7.39394 9.64493 7.2989 9.77874C7.20385 9.91255 7.1361 10.0638 7.09949 10.2238C7.06289 10.3838 7.05816 10.5494 7.08558 10.7112C7.81606 15.0644 10.2436 18.9501 13.8355 21.5157C13.8867 21.5464 13.9401 21.5733 13.9952 21.5963C14.0385 21.6217 14.0834 21.6443 14.1296 21.664C14.2691 21.7198 14.4176 21.7498 14.5679 21.7525C14.7518 21.7502 14.9328 21.7067 15.0977 21.6252C15.1101 21.6193 15.1244 21.622 15.1367 21.6158C15.2472 21.5582 15.3484 21.4844 15.4369 21.3967C15.4546 21.3794 15.4665 21.3581 15.4833 21.3398C15.564 21.2511 15.6313 21.1513 15.6832 21.0433C15.7006 21.0074 15.7165 20.9732 15.7304 20.9355C15.7854 20.7976 15.815 20.6509 15.8179 20.5025L15.8185 17.845C16.593 18.0724 17.2908 18.5067 17.8369 19.1011L19.8969 21.3472C20.0077 21.4686 20.1413 21.5669 20.2902 21.6365C20.4391 21.7062 20.6002 21.7458 20.7644 21.7531C20.9286 21.7603 21.0926 21.7352 21.2471 21.679C21.4015 21.6228 21.5434 21.5367 21.6645 21.4256C21.7856 21.3145 21.8836 21.1806 21.953 21.0316C22.0223 20.8825 22.0615 20.7213 22.0684 20.5571C22.0753 20.3929 22.0498 20.2289 21.9932 20.0746C21.9367 19.9203 21.8503 19.7786 21.7389 19.6577L19.6796 17.4116ZM18.8409 1.75H11.1719C3.47534 1.75 1.25 3.9729 1.25 11.6584V19.3281C1.25 27.0247 3.47229 29.25 11.1591 29.25H18.8281C26.5247 29.25 28.75 27.0271 28.75 19.3416V11.6719C28.75 3.97534 26.5277 1.75 18.8409 1.75ZM26.25 19.3416C26.25 25.6416 25.1404 26.75 18.8281 26.75H11.1591C4.85779 26.75 3.75 25.6404 3.75 19.3281V11.6584C3.75 5.3584 4.85963 4.25 11.1719 4.25H18.8409C25.1422 4.25 26.25 5.35963 26.25 11.6719V19.3416Z" fill="#007BFF"/>
</svg>
